<?xml version="1.0" encoding="utf-8"?>
<!-- Generator: Adobe Illustrator 18.0.0, SVG Export Plug-In . SVG Version: 6.00 Build 0)  -->
<!DOCTYPE svg PUBLIC "-//W3C//DTD SVG 1.1//EN" "http://www.w3.org/Graphics/SVG/1.1/DTD/svg11.dtd">
<svg version="1.1" id="Layer_1" xmlns="http://www.w3.org/2000/svg" xmlns:xlink="http://www.w3.org/1999/xlink" x="0px" y="0px"
	 viewBox="0 185.2 612 606.8" enable-background="new 0 185.2 612 606.8" xml:space="preserve">
<g>
	<path fill="#A1643E" d="M95.4,502.1c15.4,12.1,32.3,17.8,51.7,17.8c24.3-0.8,44.5-9.7,60.6-25.9c8.1-12.1,12.9-23.4,15.4-36.4
		c1.6-12.1,1.6-22.6,1.6-31.5c0-36.4-9.7-73.6-28.3-109.9c-8.9-17.8-20.2-32.3-34.8-43.7c-14.6-10.5-31.5-16.2-50.1-17
		c-25.1,0.8-46.1,10.5-62.3,30.7c-13.7,20.2-21,43.7-20.2,68.7c0,33.1,9.7,68.7,29.1,103.5C67.9,476.3,80.8,490.8,95.4,502.1z"/>
	<path fill="#A1643E" d="M176.2,667.9c-5.7-0.8-12.9-0.8-21-0.8c-4.9-0.8-17,0-36.4,1.6c-19.4,2.4-38.8,7.3-59,12.9
		c-4.9,1.6-11.3,4.9-20.2,8.1c-8.1,4.9-16.2,9.7-25.1,17c-5.7,4.9-10.5,10.5-15.4,17L0,794.8h274.1v-3.2c0-24.3-7.3-45.3-22.6-63.1
		C236.1,712.3,211,692.1,176.2,667.9z"/>
	<path fill="#A1643E" d="M0,185.2v88.9v11.3c2.4-3.2,5.7-5.7,8.1-8.9c26.7-21.8,53.4-35.6,81.7-42c29.1-5.7,55-8.9,80-8.9h184.3
		l-57.4,33.1h-57.4c5.7,3.2,12.1,8.9,19.4,16.2s13.7,16.2,20.2,26.7c6.5,9.7,12.1,21.8,17,35.6c4,13.7,6.5,29.1,6.5,47.7
		c-0.8,33.1-8.1,59.8-21.8,79.2c-7.3,9.7-14.6,18.6-21.8,26.7c-8.9,8.1-17.8,16.2-27.5,25.1c-5.7,5.7-10.5,12.1-15.4,19.4
		c-5.7,7.3-8.1,16.2-8.1,25.9c0,9.7,2.4,17.8,8.1,24.3c4.9,5.7,9.7,11.3,13.7,16.2l31.5,25.9c19.4,16.2,36.4,34,51.7,52.5
		c13.7,19.4,21,45.3,21.8,76.8c0,12.9-1.6,25.9-4.9,38h283V276.6v-91.4H0z M603.1,373.6h-97v97h-47.7v-97h-97v-46.9h97v-97h46.9v97
		h97L603.1,373.6L603.1,373.6z"/>
	<path fill="#A1643E" d="M151.2,642c-6.5-8.9-12.9-17.8-17.8-28.3c-6.5-9.7-8.9-21-8.9-34.8c0-8.1,0.8-15.4,3.2-20.2
		c2.4-5.7,4-11.3,5.7-16.2c-10.5,0.8-20.2,1.6-29.9,1.6C59,544.2,24.3,531.2,0,507v164.9c22.6-10.5,46.1-17.8,70.3-21.8
		C101.9,645.2,129.4,642.8,151.2,642z"/>
</g>
</svg>
