<?xml version="1.0" encoding="utf-8"?>
<!-- Generator: Adobe Illustrator 18.0.0, SVG Export Plug-In . SVG Version: 6.00 Build 0)  -->
<!DOCTYPE svg PUBLIC "-//W3C//DTD SVG 1.1//EN" "http://www.w3.org/Graphics/SVG/1.1/DTD/svg11.dtd">
<svg version="1.1" id="Layer_1" xmlns="http://www.w3.org/2000/svg" xmlns:xlink="http://www.w3.org/1999/xlink" x="0px" y="0px"
	 viewBox="9.1 95.8 602.9 603.4" enable-background="new 9.1 95.8 602.9 603.4" xml:space="preserve">
<path fill="#C69C6D" d="M9.1,95.8v603.4h603.4V95.8H9.1z M470.6,315c0,3,0,7.1,0,10.6c0,108.6-83.3,234.3-234.3,234.3
	c-46.5,0-89.4-13.6-126.2-36.9c6.6,1,12.6,1,20.2,1c38.4,0,74.2-12.6,102.5-35.3c-35.9-1-66.7-24.7-76.8-57.6c5,1,10.6,1.5,15.1,1.5
	c7.1,0,15.1-1,21.7-3c-37.4-7.1-66.7-40.9-66.7-80.8v-1c11.1,6.6,24.2,9.6,37.4,10.6c-22.2-14.6-36.9-39.9-36.9-68.7
	c0-15.1,4-29.8,11.1-41.4c40.9,49.5,101.5,82.3,169.7,86.3c-1.5-6.6-2.5-12.1-2.5-18.2c0-45.4,36.9-82.3,82.3-82.3
	c24.2,0,44.9,10.6,60.1,26.3c18.2-4,36.9-10.6,52-20.2c-6.6,19.2-19.2,35.3-35.9,45.4c16.7-1.5,32.8-6.6,47-12.6
	C500.4,288.7,486.8,302.8,470.6,315z"/>
</svg>
